%TF.GenerationSoftware,KiCad,Pcbnew,10.0.6*%
%TF.CreationDate,2026-10-08T10:34:07+05:30*%
%TF.ProjectId,Starbie,53746172-6269-4652-9e6b-696361645f70,rev?*%
%TF.SameCoordinates,Original*%
%TF.FileFunction,Soldermask,Bot*%
%TF.FilePolarity,Negative*%
%FSLAX46Y46*%
G04 Gerber Fmt 4.6, Leading zero omitted, Abs format (unit mm)*
G04 Created by KiCad (PCBNEW 10.0.6) date 2026-10-08 10:34:07*
%MOMM*%
%LPD*%
G01*
G04 APERTURE LIST*
%ADD10R,1.500000X1.500000*%
%ADD11C,1.500000*%
%ADD12O,3.800000X2.900000*%
%ADD13R,1.700000X1.700000*%
%ADD14O,1.700000X1.700000*%
%ADD15R,1.524000X1.524000*%
%ADD16C,1.524000*%
%ADD17C,1.700000*%
%ADD18C,4.000000*%
%ADD19C,2.200000*%
%ADD20C,1.400000*%
G04 APERTURE END LIST*
D10*
%TO.C,U1*%
X109460000Y-127827500D03*
D11*
X112000000Y-127827500D03*
X114540000Y-127827500D03*
X117080000Y-127827500D03*
%TD*%
D12*
%TO.C,J2*%
X80324000Y-80627000D03*
X80324000Y-103741000D03*
X102676000Y-80627000D03*
X102676000Y-103741000D03*
D13*
X87690000Y-79992000D03*
D14*
X90230000Y-79992000D03*
X92770000Y-79992000D03*
X95310000Y-79992000D03*
%TD*%
D15*
%TO.C,J3*%
X87650000Y-114110000D03*
D16*
X87650000Y-116650000D03*
X87650000Y-119190000D03*
X87650000Y-121730000D03*
X87650000Y-124270000D03*
X87650000Y-126810000D03*
X87650000Y-129350000D03*
X87650000Y-131890000D03*
%TD*%
D17*
%TO.C,SW1*%
X113420000Y-88000000D03*
D18*
X118500000Y-88000000D03*
D17*
X123580000Y-88000000D03*
D19*
X121040000Y-82920000D03*
X114690000Y-85460000D03*
%TD*%
D17*
%TO.C,SW2*%
X135420000Y-88000000D03*
D18*
X140500000Y-88000000D03*
D17*
X145580000Y-88000000D03*
D19*
X143040000Y-82920000D03*
X136690000Y-85460000D03*
%TD*%
D16*
%TO.C,J1*%
X125801500Y-103380000D03*
X123261500Y-103380000D03*
X120721500Y-103380000D03*
X118181500Y-103380000D03*
X115641500Y-103380000D03*
X113101500Y-103380000D03*
X110561500Y-103380000D03*
X110561500Y-118620000D03*
X113101500Y-118620000D03*
X115641500Y-118620000D03*
X118181500Y-118620000D03*
X120721500Y-118620000D03*
X123261500Y-118620000D03*
X125801500Y-118620000D03*
%TD*%
D20*
%TO.C,R1*%
X124690000Y-130000000D03*
X132310000Y-130000000D03*
%TD*%
M02*
