M48
; DRILL file KiCad 10.0.6 date 2026-10-08T10:35:10
; FORMAT={-:-/ absolute / metric / decimal}
; #@! TF.CreationDate,2026-10-08T10:35:10+05:30
; #@! TF.GenerationSoftware,Kicad,Pcbnew,10.0.6
; #@! TF.FileFunction,Plated,1,2,PTH
FMAT,2
METRIC
; #@! TA.AperFunction,Plated,PTH,ComponentDrill
T1C0.700
; #@! TA.AperFunction,Plated,PTH,ComponentDrill
T2C0.762
; #@! TA.AperFunction,Plated,PTH,ComponentDrill
T3C0.800
; #@! TA.AperFunction,Plated,PTH,ComponentDrill
T4C0.889
; #@! TA.AperFunction,Plated,PTH,ComponentDrill
T5C1.000
; #@! TA.AperFunction,Plated,PTH,ComponentDrill
T6C1.500
%
G90
G05
T1
X124.69Y-130.0
X132.31Y-130.0
T2
X87.65Y-114.11
X87.65Y-116.65
X87.65Y-119.19
X87.65Y-121.73
X87.65Y-124.27
X87.65Y-126.81
X87.65Y-129.35
X87.65Y-131.89
T3
X109.46Y-127.828
X112.0Y-127.828
X114.54Y-127.828
X117.08Y-127.828
T4
X110.561Y-103.38
X110.561Y-118.62
X113.102Y-103.38
X113.102Y-118.62
X115.641Y-103.38
X115.641Y-118.62
X118.181Y-103.38
X118.181Y-118.62
X120.721Y-103.38
X120.721Y-118.62
X123.261Y-103.38
X123.261Y-118.62
X125.801Y-103.38
X125.801Y-118.62
T5
X87.69Y-79.992
X90.23Y-79.992
X92.77Y-79.992
X95.31Y-79.992
T6
X114.69Y-85.46
X121.04Y-82.92
X136.69Y-85.46
X143.04Y-82.92
M30
